<?xml version="1.0" encoding="utf-8"?>
<svg width="39" height="39" viewBox="0 0 39 39" fill="none" xmlns="http://www.w3.org/2000/svg">
  <g>
    <rect width="39" height="39" />
    <path id="Shape" d="M12.7969 0C11.4508 0 10.3594 1.09139 10.3594 2.4375C10.3594 2.4375 10.3594 3.65625 10.3594 3.65625L10.1154 3.65625L0 4.875L0 6.70313L30.4688 6.70313L30.4688 4.875L20.3534 3.65625L20.1094 3.65625C20.1094 3.65625 20.1094 2.4375 20.1094 2.4375C20.1094 1.09139 19.018 0 17.6719 0C17.6719 0 12.7969 0 12.7969 0C12.7969 0 12.7969 0 12.7969 0ZM12.7969 2.4375L17.6719 2.4375L17.6719 3.65625L12.7969 3.65625L12.7969 2.4375L12.7969 2.4375ZM1.82813 7.92188L4.26563 33.5156L26.2031 33.5156L28.5942 8.53125L1.82813 7.92188L1.82813 7.92188ZM15.2344 12.1875C16.0467 12.1875 16.4531 12.7969 16.4531 12.7969C16.4531 12.7969 16.4531 30.4688 16.4531 30.4688L14.0156 30.4688C14.0156 30.4688 14.0156 12.7969 14.0156 12.7969C14.0156 12.7969 14.4221 12.1875 15.2344 12.1875C15.2344 12.1875 15.2344 12.1875 15.2344 12.1875ZM7.29822 12.2304C8.10869 12.1737 8.55743 12.754 8.55743 12.754C8.55743 12.754 9.75476 30.4688 9.75476 30.4688L7.31012 30.4688C7.31012 30.4688 6.12589 12.923 6.12589 12.923C6.12589 12.923 6.48775 12.287 7.29822 12.2304C7.29822 12.2304 7.29822 12.2304 7.29822 12.2304ZM23.1432 12.2304C23.9536 12.287 24.3167 12.923 24.3167 12.923C24.3167 12.923 23.1324 30.4688 23.1324 30.4688L20.6878 30.4688C20.6878 30.4688 21.8851 12.754 21.8851 12.754C21.8851 12.754 22.3327 12.1737 23.1432 12.2304C23.1432 12.2304 23.1432 12.2304 23.1432 12.2304Z" fill="#AE0F0F" transform="translate(4.266 1.828)" />
  </g>
</svg>